HIERARCHY
ROOT ui
{
	 OFFSET 0 0 0
	 CHANNELS 3 XPosition YPosition Z Position
	 EndSite
	 {
	 OFFSET 0 -1 0
	 }
}
ROOT li
{
	 OFFSET 0 0 0
	 CHANNELS 3 XPosition YPosition Z Position
	 EndSite
	 {
	 OFFSET 0 -1 0
	 }
}
ROOT ul
{
	 OFFSET 0 0 0
	 CHANNELS 3 XPosition YPosition Z Position
	 EndSite
	 {
	 OFFSET 0 -1 0
	 }
}
ROOT ll
{
	 OFFSET 0 0 0
	 CHANNELS 3 XPosition YPosition Z Position
	 EndSite
	 {
	 OFFSET 0 -1 0
	 }
}
ROOT tt
{
	 OFFSET 0 0 0
	 CHANNELS 3 XPosition YPosition Z Position
	 EndSite
	 {
	 OFFSET 0 -1 0
	 }
}
ROOT tb
{
	 OFFSET 0 0 0
	 CHANNELS 3 XPosition YPosition Z Position
	 EndSite
	 {
	 OFFSET 0 -1 0
	 }
}
ROOT td
{
	 OFFSET 0 0 0
	 CHANNELS 3 XPosition YPosition Z Position
	 EndSite
	 {
	 OFFSET 0 -1 0
	 }
}
ROOT v
{
	 OFFSET 0 0 0
	 CHANNELS 3 XPosition YPosition Z Position
	 EndSite
	 {
	 OFFSET 0 -1 0
	 }
}
ROOT bn
{
	 OFFSET 0 0 0
	 CHANNELS 3 XPosition YPosition Z Position
	 EndSite
	 {
	 OFFSET 0 -1 0
	 }
}
MOTION
Frames: 30
Frame Time: 0.002
0.0017101420164108276	-8.980699628591538E-5	0		0.6063054809570313	-2.630506103515625	0		-1.2099119873046875	0.12240446472167969	0		-0.5031575927734375	-2.746250244140625	0		2.598166259765625	-1.901267578125	0		3.87646923828125	-0.9634832153320313	0		4.88544482421875	-0.5491475830078125	0		5.94951904296875	0.48787530517578126	0		-0.343141357421875	5.86945263671875	0		
0.005538424015045166	0.0029738020896911623	0		0.5962421875	-2.621267333984375	0		-1.2151683349609375	0.11855956268310547	0		-0.5162429809570312	-2.73899072265625	0		2.64263525390625	-1.9306558837890626	0		3.87647802734375	-0.9463201293945313	0		4.8852451171875	-0.5489790649414062	0		5.94449755859375	0.5125718383789063	0		-0.343428466796875	5.8695595703125	0		
0.001285457968711853	1.4791999757289887E-4	0		0.6439520874023438	-2.63170166015625	0		-1.151523681640625	0.10690023803710938	0		-0.52045556640625	-2.742826416015625	0		2.637383544921875	-1.93641943359375	0		3.8732431640625	-0.9490841674804688	0		4.897037109375	-0.548916259765625	0		5.94766943359375	0.46444705200195313	0		-0.21149290466308593	5.891103515625	0		
0.0010611870288848876	2.90026992559433E-4	0		0.5898344116210937	-2.62790087890625	0		-1.1608333740234376	0.10012052154541015	0		-0.5256809692382812	-2.7486376953125	0		2.63720849609375	-1.9362100830078126	0		3.86309130859375	-0.9447246704101563	0		4.89197021484375	-0.5366085815429688	0		5.93551220703125	0.49125430297851563	0		-0.3791886596679688	5.86522900390625	0		
8.32817018032074E-4	4.4930300116539E-4	0		0.589691162109375	-2.627722412109375	0		-1.165112060546875	0.09628992462158203	0		-0.5149279174804687	-2.75762548828125	0		2.604080810546875	-1.93257421875	0		3.887690185546875	-0.9617357788085937	0		4.89175927734375	-0.5363135986328125	0		5.9423193359375	0.4587903747558594	0		-0.3776307678222656	5.8633525390625	0		
0.00463789701461792	0.003579267978668213	0		0.6055399169921875	-2.6297109375	0		-1.165345947265625	0.09642140197753907	0		-0.5099786071777344	-2.75152783203125	0		2.644007080078125	-1.9257674560546876	0		3.893804931640625	-0.9354777221679688	0		4.91046630859375	-0.5431950073242188	0		5.93379052734375	0.4995371704101563	0		-0.32890643310546874	5.8789345703125	0		
0.00440772294998169	0.003775816917419434	0		0.6194788818359375	-2.6256513671875	0		-1.174662353515625	0.08966980743408202	0		-0.5111036071777344	-2.75334326171875	0		2.64181982421875	-1.929423828125	0		3.88446630859375	-0.94799267578125	0		4.919390625	-0.5319088134765625	0		5.93696337890625	0.45354910278320315	0		-0.3465040283203125	5.87131640625	0		
1.437540054321289E-4	0.001038450002670288	0		0.5893705444335937	-2.62705078125	0		-1.187024169921875	0.07896306610107422	0		-0.4921615295410156	-2.751378662109375	0		2.636625244140625	-1.9350067138671876	0		3.87839453125	-0.9384976806640625	0		4.89727392578125	-0.5242080078125	0		5.921150390625	0.4635741577148437	0		-0.3470502014160156	5.8715126953125	0		
-8.371400088071823E-5	0.0012720990180969238	0		0.6491019287109375	-2.6444794921875	0		-1.1154129638671875	0.06528499603271484	0		-0.5261828002929687	-2.74777880859375	0		2.6365166015625	-1.934611328125	0		3.890013916015625	-0.9561648559570313	0		4.92492529296875	-0.5370425415039063	0		5.92155078125	0.43345025634765627	0		-0.3817055358886719	5.8661220703125	0		
-3.0977699160575866E-4	0.0015229849815368653	0		0.5991535034179688	-2.63560498046875	0		-1.1137479248046875	0.05643679809570312	0		-0.47933941650390627	-2.758108154296875	0		2.6384580078125	-1.9312030029296876	0		3.8742255859375	-0.9234637451171875	0		4.9168408203125	-0.5274097290039063	0		5.914265625	0.43651904296875	0		-0.38134552001953126	5.86533544921875	0		
-5.345119833946228E-4	0.0017896389961242676	0		0.60318603515625	-2.63033935546875	0		-1.191098388671875	0.04650672912597656	0		-0.5171220092773438	-2.73744140625	0		2.6434599609375	-1.9237943115234375	0		3.895816162109375	-0.9451553344726562	0		4.932712890625	-0.5220079345703125	0		5.9127109375	0.4447169799804688	0		-0.3489363708496094	5.8721923828125	0		
0.00327606201171875	0.005024220943450928	0		0.5932846069335938	-2.620894775390625	0		-1.1294554443359375	0.03498011779785156	0		-0.4831546630859375	-2.740592529296875	0		2.650441650390625	-1.9193746337890625	0		3.89283154296875	-0.9305180053710937	0		4.9175107421875	-0.5232044067382813	0		5.90963232421875	0.43229290771484374	0		-0.21640420532226562	5.89292138671875	0		
-9.803760051727295E-4	0.00236201810836792	0		0.589240966796875	-2.62550390625	0		-1.1418048095703126	0.024307600021362306	0		-0.5249468383789062	-2.723868408203125	0		2.62551806640625	-1.90756201171875	0		3.89859033203125	-0.9389443969726563	0		4.93339111328125	-0.5177160034179688	0		5.90583447265625	0.4182455139160156	0		-0.36451995849609375	5.8618642578125	0		
-0.004246822834014893	-0.0013040540218353272	0		0.6132117919921874	-2.63041748046875	0		-1.1482081298828124	0.00856740665435791	0		-0.4998316650390625	-2.716900146484375	0		2.637376220703125	-1.916146484375	0		3.901514404296875	-0.9333071899414063	0		4.93019677734375	-0.51897900390625	0		5.89912109375	0.3905057373046875	0		-0.3993536376953125	5.85751220703125	0		
-0.008500532150268554	-0.0039552640914917	0		0.5992083740234375	-2.63389599609375	0		-1.1486527099609376	-0.0112408447265625	0		-0.5408359375	-2.721187744140625	0		2.621369140625	-1.913402099609375	0		3.917240234375	-0.9457933349609375	0		4.94304931640625	-0.5164000244140625	0		5.89896484375	0.3920456848144531	0		-0.43224261474609377	5.85013427734375	0		
0.01623495292663574	-0.007926741123199462	0		0.6053341674804688	-2.62659619140625	0		-1.1488707275390626	-0.011052313804626466	0		-0.49670361328125	-2.714423828125	0		2.625421630859375	-1.9058746337890624	0		3.916526123046875	-0.90808056640625	0		4.92806005859375	-0.4994981384277344	0		5.8909794921875	0.3972832336425781	0		-0.36493960571289064	5.8606435546875	0		
0.002172817945480347	0.006531126022338867	0		0.5954868774414063	-2.61712109375	0		-1.1602939453125	-0.029745359420776368	0		-0.5133772583007813	-2.689986572265625	0		2.630400634765625	-1.90535498046875	0		3.88816357421875	-0.9290654296875	0		4.9368173828125	-0.5058568420410157	0		5.88008056640625	0.3887638549804687	0		-0.36674951171875	5.86192041015625	0		
-0.0020753979682922364	0.0038749830722808838	0		0.6434302368164062	-2.627279541015625	0		-1.1396700439453125	-0.044791759490966795	0		-0.50927197265625	-2.685783203125	0		2.620447509765625	-1.8986756591796874	0		3.884196044921875	-0.9143218994140625	0		4.9437841796875	-0.4931965026855469	0		5.87046337890625	0.3473277893066406	0		-0.3816767883300781	5.85233544921875	0		
0.005483343124389649	-0.01691566276550293	0		0.589518310546875	-2.62333984375	0		-1.1789962158203124	-0.055193965911865234	0		-0.5051705017089844	-2.681583984375	0		2.637414306640625	-1.8992969970703124	0		3.894031005859375	-0.9177391357421875	0		4.9306201171875	-0.492330322265625	0		5.87031298828125	0.3488701477050781	0		-0.41171160888671876	5.8319033203125	0		
-0.009581278800964356	-0.0024694130420684812	0		0.593615478515625	-2.618037353515625	0		-1.149293701171875	-0.0633429412841797	0		-0.530980712890625	-2.668071044921875	0		2.628302001953125	-1.9066522216796875	0		3.91012841796875	-0.8962373657226562	0		4.94348388671875	-0.4887621765136719	0		5.8659658203125	0.3695124206542969	0		-0.4455790710449219	5.8255009765625	0		
-0.002726625919342041	0.004734543800354004	0		0.5956671752929688	-2.615722900390625	0		-1.141644287109375	-0.07625714111328125	0		-0.5208402709960938	-2.65794873046875	0		2.63029638671875	-1.9031435546875	0		3.89987939453125	-0.9064791870117187	0		4.9433115234375	-0.48807827758789063	0		5.85926416015625	0.3417178039550781	0		-0.4132818603515625	5.83238916015625	0		
-0.0029496889114379882	0.005006163120269775	0		0.6216488037109374	-2.618668701171875	0		-1.116976318359375	-0.08734956359863282	0		-0.5266648559570313	-2.642662109375	0		2.624382568359375	-1.8895712890625	0		3.892833251953125	-0.8967811889648437	0		4.9372275390625	-0.4783595886230469	0		5.85128515625	0.34849374389648435	0		-0.44126162719726564	5.8109072265625	0		
-0.0031760859489440916	0.005270660877227783	0		0.59567822265625	-2.61508154296875	0		-1.12526708984375	-0.09409652709960938	0		-0.48967828369140626	-2.643825927734375	0		2.6392646484375	-1.894238525390625	0		3.899590087890625	-0.9052572021484375	0		4.93094921875	-0.4866715087890625	0		5.8346630859375	0.3363846435546875	0		-0.3097610778808594	5.831763671875	0		
-0.010476255416870117	-0.0014004590511322022	0		0.6445713500976562	-2.62328173828125	0		-1.1375899658203126	-0.10380445861816406	0		-0.5186038208007813	-2.634309814453125	0		2.609424072265625	-1.8704661865234375	0		3.882578369140625	-0.8905189208984375	0		4.9279140625	-0.47105123901367185	0		5.8308779296875	0.3238711853027344	0		-0.4787074890136719	5.8077265625	0		
0.011223211288452148	-0.008378636360168458	0		0.5696476440429687	-2.611222412109375	0		-1.125913330078125	-0.11376099395751953	0		-0.51357177734375	-2.6271513671875	0		2.62920654296875	-1.8822359619140625	0		3.879383544921875	-0.892962890625	0		4.93768896484375	-0.4736033935546875	0		5.8319990234375	0.2903847961425781	0		-0.4773821716308594	5.80491943359375	0		
1.719619929790497E-4	0.00896890354156494	0		0.600617919921875	-2.60826513671875	0		-1.1502314453125	-0.12335250854492187	0		-0.501508056640625	-2.615070556640625	0		2.621254150390625	-1.866751953125	0		3.898478515625	-0.8666739501953125	0		4.934646484375	-0.45806756591796877	0		5.82764208984375	0.3105682067871094	0		-0.4487654724121094	5.8258291015625	0		
0.00886022663116455	1.0206300020217896E-4	0		0.6005432739257812	-2.60800830078125	0		-1.059509765625	-0.13011189270019533	0		-0.4724626159667969	-2.60316845703125	0		2.6222998046875	-1.850393310546875	0		3.872328369140625	-0.8639708251953125	0		4.92854345703125	-0.4485481262207031	0		5.82457666015625	0.2977445068359375	0		-0.4444512634277344	5.81197802734375	0		
0.00752597188949585	-0.011676976203918457	0		0.587505126953125	-2.60263916015625	0		-1.133823974609375	-0.14020806884765624	0		-0.5164088745117188	-2.58853955078125	0		2.605195556640625	-1.8478873291015625	0		3.898134765625	-0.8658372192382813	0		4.9372900390625	-0.45422637939453125	0		5.8208037109375	0.28483465576171874	0		-0.4459324951171875	5.8131767578125	0		
-0.0045005278587341305	0.0066375541687011715	0		0.587402587890625	-2.60242041015625	0		-1.0691094970703126	-0.14870945739746094	0		-0.47750396728515626	-2.587755859375	0		2.614132080078125	-1.840677490234375	0		3.871983154296875	-0.863224365234375	0		4.9281611328125	-0.44777023315429687	0		5.81645654296875	0.3047103271484375	0		-0.44637542724609375	5.813353515625	0		
0.0030858609676361086	-0.014261768341064454	0		0.598217041015625	-2.609330322265625	0		-1.139374267578125	-0.15486715698242187	0		-0.5285571899414062	-2.581083984375	0		2.612021240234375	-1.837389404296875	0		3.888017822265625	-0.8420741577148437	0		4.93203271484375	-0.4414874267578125	0		5.82051416015625	0.28622802734375	0		-0.45163601684570315	5.8275673828125	0		
